PathFileType	4	(X/Y/Z)	/Users/itak/Documents/Research/Walk-IL/dataset/trc/00430_00167.trc
DataRate	CameraRate	NumFrames	NumMarkers	Units	OrigDataRate	OrigDataStartFrame	OrigNumFrames
100.000000	100.000000	4	53	mm	100.000000	280	748
Frame#	Time	RPSI			LPSI			L3			STRN			T10			C7			CLAV			RBAK			LBAK			LSHO			LUPA			LAEL			LAOL			LWTS			LWPS			LFRA			LIFD			LHPS			LHTS			RSHO			RUPA			RAEL			RAOL			RWTS			RWPS			RFRA			RIFD			RHTS			RHPS			RBHD			LFHD			RFHD			LBHD			LHIP			RHIP			RASI			LASI			LKNE			LTHI			LANK			LTIP			LTOE			LMT1			LMT5			LHEE			RKNE			RTHI			RANK			RTIP			RTOE			RMT1			RMT5			RHEE			
		X1	Y1	Z1	X2	Y2	Z2	X3	Y3	Z3	X4	Y4	Z4	X5	Y5	Z5	X6	Y6	Z6	X7	Y7	Z7	X8	Y8	Z8	X9	Y9	Z9	X10	Y10	Z10	X11	Y11	Z11	X12	Y12	Z12	X13	Y13	Z13	X14	Y14	Z14	X15	Y15	Z15	X16	Y16	Z16	X17	Y17	Z17	X18	Y18	Z18	X19	Y19	Z19	X20	Y20	Z20	X21	Y21	Z21	X22	Y22	Z22	X23	Y23	Z23	X24	Y24	Z24	X25	Y25	Z25	X26	Y26	Z26	X27	Y27	Z27	X28	Y28	Z28	X29	Y29	Z29	X30	Y30	Z30	X31	Y31	Z31	X32	Y32	Z32	X33	Y33	Z33	X34	Y34	Z34	X35	Y35	Z35	X36	Y36	Z36	X37	Y37	Z37	X38	Y38	Z38	X39	Y39	Z39	X40	Y40	Z40	X41	Y41	Z41	X42	Y42	Z42	X43	Y43	Z43	X44	Y44	Z44	X45	Y45	Z45	X46	Y46	Z46	X47	Y47	Z47	X48	Y48	Z48	X49	Y49	Z49	X50	Y50	Z50	X51	Y51	Z51	X52	Y52	Z52	X53	Y53	Z53	

281	2.8	-611.3797607421875	955.4707641601562	-39.58082580566406	-529.1076049804688	948.7059936523438	-155.9923553466797	-577.401611328125	1057.019165039062	-68.93187713623047	-341.1648559570312	1243.958862304688	71.13951110839844	-588.6264038085938	1179.0859375	-74.52237701416016	-537.0147705078125	1445.839233398438	-26.10081481933594	-370.0958862304688	1358.530639648438	50.52008438110352	-639.499755859375	1326.433471679688	24.27873992919922	-516.6069946289062	1401.081665039062	-129.7056427001953	-387.1730651855469	1418.129638671875	-146.3646240234375	-347.713623046875	1303.654907226562	-240.4541625976562	-302.7760314941406	1095.503662109375	-271.4898681640625	-406.1525573730469	1072.251220703125	-255.8451080322266	-219.5194091796875	914.279296875	-179.7391052246094	-228.8869171142578	889.0167236328125	-248.8394622802734	-266.1055297851562	1013.457397460938	-264.6941528320312	-182.1113739013672	750.5664672851562	-161.2798919677734	-207.7448425292969	811.317626953125	-235.0355987548828	-184.2582550048828	830.76953125	-171.0655364990234	-552.9751586914062	1412.61181640625	147.7167053222656	-605.1056518554688	1353.178344726562	206.8324890136719	-630.3748168945312	1073.251098632812	278.9037170410156	-657.2803344726562	1047.081665039062	221.7949066162109	-491.5425415039062	895.5044555664062	309.616455078125	-573.0093994140625	867.8198852539062	331.0211791992188	-623.9876098632812	1016.647155761719	295.5671081542969	-465.4952087402344	741.1068725585938	338.8926696777344	-466.5951538085938	802.2706298828125	341.4105529785156	-540.51904296875	787.01123046875	349.0054016113281	-503.8121948242188	1639.32080078125	87.59273529052734	-310.5288391113281	1656.2548828125	15.48886489868164	-373.1218566894531	1657.713500976562	130.3276824951172	-431.9402160644531	1642.6005859375	-75.84852600097656	-336.305908203125	856.8619384765625	-166.0910186767578	-596.767333984375	848.65771484375	141.5013427734375	-477.5581359863281	891.10986328125	152.0653533935547	-321.0908203125	901.8550415039062	-46.97488784790039	-208.2289733886719	463.6688537597656	-61.54862213134766	-219.0357666015625	620.69921875	-83.24679565429688	-304.9348449707031	56.87692260742188	-138.3627777099609	-226.6794128417969	307.4822692871094	-94.19577789306641	-141.0557861328125	69.04238128662109	21.73204040527344	-217.8270111083984	61.84360885620117	15.88235092163086	-170.4024505615234	62.94894027709961	-84.12657165527344	-376.0770263671875	61.76567840576172	-120.0065307617188	-552.6513061523438	453.0817260742188	86.76830291748047	-557.2261352539062	710.4863891601562	157.9647369384766	-597.2935791015625	44.01377868652344	5.700461864471436	-561.4663696289062	304.7351379394531	73.68785095214844	-386.0966186523438	45.72954177856445	63.54997253417969	-426.052001953125	50.27053070068359	2.499971151351929	-490.8687744140625	46.7438850402832	89.80960083007812	-635.6949462890625	37.28058624267578	-66.29521179199219	
282	2.81	-606.3082885742188	954.5521850585938	-36.98935317993164	-523.5967407226562	947.6742553710938	-153.1005401611328	-572.564697265625	1056.011474609375	-66.44783020019531	-336.3714294433594	1243.1943359375	74.22556304931641	-583.6550903320312	1178.340942382812	-71.83953094482422	-531.7384643554688	1445.102294921875	-23.49035453796387	-365.1730651855469	1357.7412109375	53.38508605957031	-634.5123291015625	1325.920166015625	26.76103782653809	-511.2383422851562	1400.227416992188	-127.0583724975586	-381.7118530273438	1417.017578125	-143.5695495605469	-342.5823974609375	1302.221313476562	-237.4361419677734	-299.0154113769531	1093.571533203125	-268.3847045898438	-401.7790832519531	1070.716918945312	-251.9685211181641	-218.0337829589844	909.9679565429688	-179.0168609619141	-228.3326110839844	885.6775512695312	-248.3286285400391	-263.6180114746094	1010.900756835938	-262.6080627441406	-183.5355072021484	745.3225708007812	-162.8551940917969	-208.5638122558594	807.4533081054688	-235.6022033691406	-184.2961730957031	825.6539916992188	-171.5795745849609	-548.06591796875	1412.009155273438	150.3479309082031	-600.3967895507812	1352.59033203125	209.3658905029297	-626.2315063476562	1072.350708007812	280.6114196777344	-653.1881713867188	1046.614624023438	223.3397979736328	-488.6312866210938	893.4465942382812	310.5650939941406	-570.36767578125	866.2435913085938	331.7828063964844	-620.2360229492188	1015.616088867188	297.0177001953125	-463.7577819824219	738.7017211914062	338.9345703125	-464.4281005859375	799.85205078125	341.8207702636719	-538.459228515625	785.1049194335938	349.2950744628906	-498.2422790527344	1638.623901367188	90.29840087890625	-304.9453125	1655.13720703125	18.18830680847168	-367.5448303222656	1656.745727539062	133.0129089355469	-426.3594360351562	1641.717407226562	-73.19180297851562	-330.4453125	856.4898681640625	-162.2316436767578	-592.5823974609375	848.0001220703125	144.2365875244141	-473.5947875976562	890.3140869140625	155.1298217773438	-315.9913024902344	901.61474609375	-43.09086608886719	-200.2817840576172	464.3328857421875	-54.90478134155273	-212.8834228515625	621.1707763671875	-77.91848754882812	-283.11962890625	53.43205261230469	-124.3291473388672	-213.2541198730469	307.3304443359375	-84.35816192626953	-122.5043869018555	72.43748474121094	38.39719772338867	-198.9756622314453	63.40151596069336	31.22375106811523	-149.8060455322266	63.86872863769531	-67.92032623291016	-354.6076354980469	57.02021408081055	-107.3574829101562	-549.80078125	452.5844116210938	88.42383575439453	-553.2719116210938	709.771484375	160.2844085693359	-597.1880493164062	44.16341018676758	5.622910022735596	-559.553466796875	304.3210144042969	74.66510009765625	-385.9970397949219	45.63461303710938	63.5960693359375	-425.9576416015625	50.21989822387695	2.469130516052246	-490.8529968261719	46.76274108886719	89.78018188476562	-635.5759887695312	37.52345657348633	-66.40638732910156	
283	2.82	-601.16259765625	953.5866088867188	-34.42085266113281	-518.0057983398438	946.6190185546875	-150.1860504150391	-567.5841064453125	1054.765502929688	-63.99964904785156	-331.5087280273438	1242.390747070312	77.31650543212891	-578.5884399414062	1177.542602539062	-69.16861724853516	-526.40185546875	1444.3154296875	-20.90784072875977	-360.1928100585938	1356.915771484375	56.24151992797852	-629.4592895507812	1325.347534179688	29.22208023071289	-505.7998046875	1399.307861328125	-124.4216232299805	-376.1878662109375	1415.840209960938	-140.7823486328125	-337.402587890625	1300.718872070312	-234.4224090576172	-295.2538452148438	1091.5869140625	-265.3186340332031	-397.2835998535156	1069.018676757812	-248.0627899169922	-216.6863098144531	905.580322265625	-178.3858489990234	-227.9058227539062	882.324951171875	-247.9024200439453	-261.1791687011719	1008.300598144531	-260.56689453125	-185.248046875	740.0533447265625	-164.5893402099609	-209.5940856933594	803.5989379882812	-236.2942810058594	-184.5553894042969	820.4708862304688	-172.2168579101562	-543.1173706054688	1411.362182617188	152.9609069824219	-595.65087890625	1351.962036132812	211.8695831298828	-622.0978393554688	1071.399780273438	282.2375183105469	-649.10888671875	1046.125854492188	224.8002777099609	-485.8579406738281	891.2561645507812	311.4150390625	-567.8910522460938	864.5804443359375	332.4255676269531	-616.5347900390625	1014.534790039062	298.3724975585938	-462.2900085449219	736.1375732421875	338.8101501464844	-462.4707336425781	797.2648315429688	342.0902709960938	-536.642333984375	783.0874633789062	349.4349365234375	-492.6246337890625	1637.888793945312	92.99036407470703	-299.3023986816406	1653.966796875	20.88720321655273	-361.9220886230469	1655.7138671875	135.6926574707031	-420.7115478515625	1640.811157226562	-70.53915405273438	-324.4720458984375	856.0695190429688	-158.3341522216797	-588.355712890625	847.3075561523438	146.9591064453125	-469.5803527832031	889.4714965820312	158.1871032714844	-310.8164978027344	901.318359375	-39.18510818481445	-192.4849548339844	464.9159240722656	-48.40158462524414	-206.8339233398438	621.501220703125	-72.68319702148438	-261.5066833496094	50.56933975219727	-110.3609466552734	-200.0016632080078	307.3735046386719	-74.60921478271484	-104.5387115478516	75.95532989501953	55.06616973876953	-180.6319885253906	65.21112060546875	46.45929718017578	-129.5639190673828	65.12846374511719	-51.68363189697266	-333.29833984375	52.89881134033203	-94.84878540039062	-546.8822631835938	452.0588073730469	90.09675598144531	-549.268310546875	709.01953125	162.6058502197266	-597.0789794921875	44.31474685668945	5.540821552276611	-557.6033325195312	303.8836669921875	75.66743469238281	-385.9117126464844	45.54875183105469	63.63785171508789	-425.8395385742188	50.17464065551758	2.453934907913208	-490.835693359375	46.7780647277832	89.75232696533203	-635.4720458984375	37.79011535644531	-66.50249481201172	
284	2.83	-595.944091796875	952.5747680664062	-31.88193130493164	-512.3267211914062	945.5353393554688	-147.2610473632812	-562.4695434570312	1053.35595703125	-61.56827926635742	-326.573974609375	1241.544921875	80.41548156738281	-573.4171752929688	1176.693237304688	-66.51413726806641	-521.0023193359375	1443.478393554688	-18.34818458557129	-355.1485900878906	1356.053100585938	59.09664154052734	-624.3433837890625	1324.714111328125	31.66849517822266	-500.2919311523438	1398.323974609375	-121.7873611450195	-370.6012573242188	1414.594970703125	-138.0029754638672	-332.179443359375	1299.147705078125	-231.4174957275391	-291.4932250976562	1089.553588867188	-262.3056945800781	-392.8301696777344	1067.304565429688	-244.2242431640625	-215.4703369140625	901.146240234375	-177.8330230712891	-227.580322265625	878.9819946289062	-247.5473327636719	-258.7673950195312	1005.669128417969	-258.572509765625	-187.2209167480469	734.810302734375	-166.4403533935547	-210.8009643554688	799.77880859375	-237.0835876464844	-185.0130004882812	815.2681274414062	-172.9476623535156	-538.1295166015625	1410.670043945312	155.5606384277344	-590.8690795898438	1351.287719726562	214.3431549072266	-617.9722900390625	1070.40087890625	283.7929077148438	-645.0346069335938	1045.614501953125	226.1817016601562	-483.2173767089844	888.9422607421875	312.1702880859375	-565.5661010742188	862.8401489257812	332.9581909179688	-612.8764038085938	1013.407592773438	299.6432189941406	-461.0831604003906	733.4295043945312	338.5426940917969	-460.7162780761719	794.5224609375	342.2334594726562	-535.0579223632812	780.9724731445312	349.4396667480469	-486.9620666503906	1637.118530273438	95.66123962402344	-293.5989379882812	1652.747192382812	23.58166885375977	-356.2513122558594	1654.625244140625	138.3627166748047	-414.998291015625	1639.8798828125	-67.89098358154297	-318.3779907226562	855.5932006835938	-154.404541015625	-584.0931396484375	846.586669921875	149.6636352539062	-465.4581298828125	888.60107421875	161.2565765380859	-305.5662536621094	900.9585571289062	-35.25722122192383	-184.8339385986328	465.4162902832031	-42.0329704284668	-200.880615234375	621.6893920898438	-67.53731536865234	-240.1456604003906	48.28476715087891	-96.49869537353516	-186.9549255371094	307.598876953125	-64.97064208984375	-87.13257598876953	79.58942413330078	71.66397094726562	-162.7871704101562	67.25753784179688	61.54088592529297	-109.6895065307617	66.76335144042969	-35.48070907592773	-312.2033081054688	49.36971664428711	-82.49481201171875	-543.9005737304688	451.5040588378906	91.79067993164062	-545.2228393554688	708.22998046875	164.93017578125	-596.9692993164062	44.46233749389648	5.456694602966309	-555.625	303.4180297851562	76.70552062988281	-385.8290100097656	45.46486663818359	63.67842483520508	-425.7022094726562	50.14030456542969	2.458462476730347	-490.8201293945312	46.78868103027344	89.73451995849609	-635.3815307617188	38.08265686035156	-66.58646392822266	
